<svg width="87" height="75" viewBox="0 0 87 75" fill="none" xmlns="http://www.w3.org/2000/svg">
<path d="M0 0H49.5C70.2107 0 87 16.7893 87 37.5V75H42.5C19.0279 75 0 55.9721 0 32.5V0Z" fill="#39DB4A"/>
<g clip-path="url(#clip0_6_63)">
<path d="M49.5 27.9165C48.3739 27.934 47.2724 28.2484 46.3067 28.8278C45.341 29.4072 44.5453 30.2312 44 31.2165C43.4546 30.2312 42.6589 29.4072 41.6932 28.8278C40.7275 28.2484 39.626 27.934 38.5 27.9165C36.7049 27.9945 35.0137 28.7798 33.7957 30.1007C32.5778 31.4217 31.9322 33.171 32 34.9665C32 39.5135 36.786 44.4795 40.8 47.8465C41.6962 48.5996 42.8293 49.0125 44 49.0125C45.1706 49.0125 46.3037 48.5996 47.2 47.8465C51.214 44.4795 56 39.5135 56 34.9665C56.0677 33.171 55.4221 31.4217 54.2042 30.1007C52.9863 28.7798 51.295 27.9945 49.5 27.9165Z" fill="white"/>
</g>
<defs>
<clipPath id="clip0_6_63">
<rect width="24" height="24" fill="white" transform="translate(32 26)"/>
</clipPath>
</defs>
</svg>
